<?xml version="1.0" encoding="utf-8"?>
<!-- Generator: Adobe Illustrator 28.0.0, SVG Export Plug-In . SVG Version: 6.00 Build 0)  -->
<svg version="1.1" id="Capa_1" xmlns:serif="http://www.serif.com/"
	 xmlns="http://www.w3.org/2000/svg" xmlns:xlink="http://www.w3.org/1999/xlink" x="0px" y="0px" viewBox="0 0 130 130"
	 style="enable-background:new 0 0 130 130;" xml:space="preserve">
<style type="text/css">
	.st0{fill-rule:evenodd;clip-rule:evenodd;fill:#FFFFFF;}
</style>
<path class="st0" d="M65,1c35.3,0,64,28.7,64,64s-28.7,64-64,64S1,100.3,1,65S29.7,1,65,1z M65,25c-10.9,0-12.2,0-16.5,0.2
	c-4.3,0.2-7.2,0.9-9.7,1.9c-2.6,1-4.9,2.4-7.1,4.6s-3.6,4.5-4.6,7.1c-1,2.5-1.7,5.5-1.9,9.7C25,52.8,25,54.1,25,65s0,12.2,0.2,16.5
	c0.2,4.3,0.9,7.2,1.9,9.7c1,2.6,2.4,4.9,4.6,7.1c2.2,2.2,4.5,3.6,7.1,4.6c2.5,1,5.5,1.7,9.7,1.9c4.3,0.2,5.6,0.2,16.5,0.2
	s12.2,0,16.5-0.2c4.3-0.2,7.2-0.9,9.7-1.9c2.6-1,4.9-2.4,7.1-4.6c2.2-2.2,3.6-4.5,4.6-7.1c1-2.5,1.7-5.5,1.9-9.7
	c0.2-4.3,0.2-5.6,0.2-16.5s0-12.2-0.2-16.5c-0.2-4.3-0.9-7.2-1.9-9.7c-1-2.6-2.4-4.9-4.6-7.1c-2.2-2.2-4.5-3.6-7.1-4.6
	c-2.5-1-5.5-1.7-9.7-1.9C77.2,25,75.9,25,65,25z M65,32.2c10.7,0,11.9,0,16.2,0.2c3.9,0.2,6,0.8,7.4,1.4c1.9,0.7,3.2,1.6,4.6,3
	c1.4,1.4,2.3,2.7,3,4.6c0.5,1.4,1.2,3.5,1.4,7.4c0.2,4.2,0.2,5.5,0.2,16.2s0,11.9-0.2,16.2c-0.2,3.9-0.8,6-1.4,7.4
	c-0.7,1.9-1.6,3.2-3,4.6c-1.4,1.4-2.7,2.3-4.6,3c-1.4,0.5-3.5,1.2-7.4,1.4c-4.2,0.2-5.5,0.2-16.2,0.2s-11.9,0-16.2-0.2
	c-3.9-0.2-6-0.8-7.4-1.4c-1.9-0.7-3.2-1.6-4.6-3c-1.4-1.4-2.3-2.7-3-4.6c-0.5-1.4-1.2-3.5-1.4-7.4c-0.2-4.2-0.2-5.5-0.2-16.2
	s0-11.9,0.2-16.2c0.2-3.9,0.8-6,1.4-7.4c0.7-1.9,1.6-3.2,3-4.6c1.4-1.4,2.7-2.3,4.6-3c1.4-0.5,3.5-1.2,7.4-1.4
	C53.1,32.2,54.3,32.2,65,32.2L65,32.2z M65,44.5c-11.3,0-20.5,9.2-20.5,20.5S53.7,85.5,65,85.5S85.5,76.3,85.5,65S76.3,44.5,65,44.5
	L65,44.5z M65,78.3c-7.4,0-13.3-6-13.3-13.3s6-13.3,13.3-13.3s13.3,6,13.3,13.3S72.4,78.3,65,78.3z M91.2,43.6
	c0,2.7-2.1,4.8-4.8,4.8c-2.7,0-4.8-2.1-4.8-4.8s2.1-4.8,4.8-4.8C89,38.8,91.2,41,91.2,43.6z"/>
</svg>
