<?xml version="1.0" encoding="utf-8"?>
<!-- Generator: Adobe Illustrator 28.0.0, SVG Export Plug-In . SVG Version: 6.00 Build 0)  -->
<svg version="1.1" id="Capa_1" xmlns:serif="http://www.serif.com/"
	 xmlns="http://www.w3.org/2000/svg" xmlns:xlink="http://www.w3.org/1999/xlink" x="0px" y="0px" viewBox="0 0 130 130"
	 style="enable-background:new 0 0 130 130;" xml:space="preserve">
<style type="text/css">
	.st0{fill-rule:evenodd;clip-rule:evenodd;fill:#FFFFFF;}
</style>
<path class="st0" d="M65,1c35.3,0,64,28.7,64,64s-28.7,64-64,64S1,100.3,1,65S29.7,1,65,1z M53.7,99C82,99,97.5,75.6,97.5,55.2
	c0-0.7,0-1.3,0-2c3-2.2,5.6-4.9,7.7-8c-2.7,1.2-5.7,2-8.8,2.4c3.2-1.9,5.6-4.9,6.8-8.5c-3,1.8-6.3,3-9.8,3.7
	c-2.8-3-6.8-4.9-11.2-4.9c-8.5,0-15.4,6.9-15.4,15.4c0,1.2,0.1,2.4,0.4,3.5C54.3,56.3,43,50.2,35.4,40.9c-1.3,2.3-2.1,4.9-2.1,7.7
	c0,5.3,2.7,10.1,6.9,12.8c-2.5-0.1-4.9-0.8-7-1.9v0.2c0,7.5,5.3,13.7,12.4,15.1c-1.3,0.4-2.7,0.5-4.1,0.5c-1,0-1.9-0.1-2.9-0.3
	c1.9,6.1,7.6,10.6,14.4,10.7c-5.3,4.1-11.9,6.6-19.1,6.6c-1.2,0-2.5-0.1-3.7-0.2C36.9,96.5,45,99,53.7,99L53.7,99z"/>
</svg>
